<?xml version="1.0" encoding="utf-8"?>
<!-- Generator: Adobe Illustrator 21.0.0, SVG Export Plug-In . SVG Version: 6.00 Build 0)  -->
<svg version="1.1" id="Layer_1" xmlns="http://www.w3.org/2000/svg" xmlns:xlink="http://www.w3.org/1999/xlink" x="0px" y="0px"
	 viewBox="0 0 1017.1 1034.4" style="enable-background:new 0 0 1017.1 1034.4;" xml:space="preserve">
<style type="text/css">
	.st0{fill:#B03851;}
	.st1{fill-rule:evenodd;clip-rule:evenodd;fill:#B03851;}
	.st2{fill:#B03851;stroke:#B03851;stroke-width:5.8661;stroke-miterlimit:10;}
</style>
<g>
	<g>
		<path class="st0" d="M837.4,113.5H710.9l-0.5-2.2C695.3,45.8,637.7,0,570.4,0h-124c-67.1,0-124.7,45.7-140,111.3l-0.5,2.1H179.7
			c-63.6,0-115.4,51.9-115.4,115.6v378.6c0,66.5,54.1,120.7,120.5,120.7h647.6c66.4,0,120.5-54.1,120.5-120.7V229.1
			C952.8,165.3,901,113.5,837.4,113.5z M184.8,653.6c-25.2,0-45.8-20.6-45.8-45.9V229.1c0-22.5,18.3-40.8,40.7-40.8h156.1
			c17.4,0,32.4-11.9,36.3-29l7.2-31.1c7.4-31.4,35-53.4,67.2-53.4h124c32.2,0,59.8,21.9,67.2,53.3l7.2,31.3c4,17,19,28.9,36.3,28.9
			h156.1c22.4,0,40.7,18.3,40.7,40.8v378.6c0,25.3-20.5,45.9-45.8,45.9H184.8z M245.9,242.2c21.3,0,38.5,17.3,38.5,38.6
			c0,21.3-17.2,38.6-38.5,38.6s-38.5-17.3-38.5-38.6C207.4,259.4,224.6,242.2,245.9,242.2z"/>
		<path class="st1" d="M557,267.4c0,16-13,29-29,29H395.4v92h86.7c16,0,29,13,29,29s-13,29-29,29h-86.7v121c0,16-13,28.9-28.9,28.9
			c-16,0-28.9-13-28.9-28.9v-300c0-16,13-28.9,28.9-28.9c0,0,0,0,0,0c0,0,0,0,0,0H528C544,238.4,557,251.4,557,267.4z M679.5,565.3
			c0-17.5-14.2-31.7-31.7-31.7c-33.2,0-60.1-27.1-60.1-60.3s27-60.3,60.1-60.3c17.5,0,31.7-14.2,31.7-31.7s-14.2-31.7-31.7-31.7
			c-68.1,0-123.5,55.5-123.5,123.7S579.7,597,647.8,597C665.3,597,679.5,582.8,679.5,565.3z"/>
	</g>
	<g>
		<path class="st2" d="M6.1,901.1c-2.1,0-3.1-1.3-3.1-3.9c0-1.9,0.9-4.1,2.6-6.4c1.8-2.3,2.8-3.9,3.2-4.6c0.4-0.7,1.4-1.9,3-3.5
			c1.6-1.6,3-2.5,4.3-2.8c1.2-0.3,3.8-0.6,7.6-1c11.7-1.1,24.4-1.8,38.2-1.9c15-22.7,27.2-39.6,36.7-50.6c-14,2.6-31.2,3.8-51.6,3.8
			c-27.7,0-41.5-6.2-41.5-18.6c0-3.5,1.8-6.6,5.3-9.2c3.6-2.6,8.1-3.9,13.5-3.9c5.4,0,8.2,0.6,8.2,1.9c0,0.7-0.8,1-2.5,1
			c-1.7,0-3.3,0.6-4.7,1.9s-2.2,2.4-2.2,3.5c0,1.7,3.7,3,11,3.8c7.3,0.8,18.7,1.2,34,1.2c15.3,0,32-1.4,49.9-4.2
			c5.9-4.9,11.5-8.5,16.7-11c5.2-2.5,10.5-3.7,15.9-3.7c5.4,0,8.9,1.2,10.6,3.6c1.6,2.4,2.5,4.2,2.5,5.4c0,1.2-0.8,2.8-2.6,4.7
			c-1.8,2-4.3,3.9-7.5,6c-7.6,4.7-17.5,7.4-29.8,8.3C110.5,837.5,97,856.2,83,877.1c5.8,0.2,11.2,0.7,16.2,1.3
			c5,0.6,7.5,2.6,7.5,5.9c0,1.4-2.1,3.9-6.4,7.8c-0.4,0.5-1,1.3-1.7,2.4c-1.2,1.8-2.4,2.7-3.5,2.7c-1.2,0-2.5-0.1-4-0.4
			c-5.8-0.2-10.2-0.3-13.2-0.3l-7.3,0.1c-26.4,41.1-40,62.5-40.9,64.1c-0.9,1.6-1.8,2.8-2.8,3.7c-1,0.8-2.3,1.2-3.8,1.2
			c-1.5,0-3.6-0.2-6.3-0.7c-2.7-0.5-4.7-1.1-6.1-1.8c-1.3-0.7-2-1.6-2-2.7c0-1.1,0.3-2.6,1-4.7c1.8-5,14.4-24.4,37.8-58.2
			c-15.2,0.8-27.3,1.5-36.2,2.4L6.1,901.1z M148.9,799.5c-1.2,0.4-2.7,1-4.4,1.8L148.9,799.5z"/>
		<path class="st2" d="M179.5,876.9c2.3,0,4.6,1,6.9,3c2.4,2,3.5,5.1,3.5,9.3s-1.5,9.6-4.4,16.2c-2.9,6.6-6.9,13.4-12,20.2
			c-5.1,6.9-10.7,13.3-16.8,19.3c-6.1,6-12.7,11-19.8,14.8c-7.1,3.9-13.5,5.8-19.3,5.8c-5.8,0-10.4-1.8-13.9-5.5s-5.2-8.7-5.2-15.2
			c0-6.5,1.6-13.7,4.8-21.5c3.2-7.9,7.3-14.8,12.3-20.9c5-6,10.5-11.5,16.3-16.3c12.2-9.8,22.9-14.7,32.2-14.7c4.1,0,7.2,1,9.3,3
			c0.7,0.7,1.1,1.3,1.1,1.8v0.7C175.6,877,177.3,876.9,179.5,876.9z M168.2,891.9h-0.8c-2.6,0-3.9-1.9-3.9-5.7
			c-5.5,1.8-11.2,4.9-17.2,9.4c-6,4.5-11.4,9.8-16.1,16c-9.6,12.3-14.5,22.7-14.6,31.2c0,4.2,1.5,6.3,4.6,6.3c3.1,0,7.6-2,13.7-6.1
			c6.1-4,12.1-9.8,18.1-17.3c6-7.5,10.4-14,13.4-19.5c3-5.5,4.4-9.3,4.4-11.2C169.8,892.9,169.2,891.9,168.2,891.9z"/>
		<path class="st2" d="M264.9,817.7l4.6,1.1c0.7,0,1.3,0.3,1.8,1c0.5,0.7,0.8,1.3,0.8,1.9c0,0.6-0.8,2.2-2.4,4.8
			c-1.6,2.6-3.4,5.6-5.6,8.9c-2.1,3.3-3.3,5.2-3.4,5.5c5.8-0.4,10-0.7,12.4-0.7c2.4,0,4.1,0.2,5,0.5s1.9,1.3,3.1,2.8
			c1.2,1.5,2.2,2.7,3.2,3.5c1,0.8,1.5,2,1.5,3.5c0,1.6-1,2.9-2.9,4c-1.9,1.1-4,1.7-6.1,2c-17.4,1.7-27,2.6-28.8,2.7
			c-6.1,9.3-14.6,23.8-25.5,43.5c-10.9,19.7-16.7,32-17.4,37c-0.3,2.3-0.5,4.1-0.5,5.5c0,2.9,1.5,4.4,4.6,4.4
			c3.1,0,6.5-1.2,10.2-3.5c3.7-2.4,7.2-4.9,10.3-7.7c8.4-7.5,12.9-11.2,13.5-11.2c1.9,0,2.9,3.4,2.9,10.1c0,3.7-1.7,7-5.1,9.9
			c-7.6,6.5-13.9,11.4-19.1,14.7c-5.2,3.3-10.3,4.9-15.5,4.9c-1.1,0-2.2-0.1-3.1-0.3c-6-1.1-10.4-3.3-13.2-6.6
			c-2.8-3.3-4.2-7.7-4.2-13.2c0-5.5,1.7-12.3,4.9-20.2c3.3-7.9,7.4-16.3,12.3-25.3c8.1-14.5,16.2-28.2,24.3-40.9l-4.3,0.6
			c-8.7,1-13.8,1.5-15.2,1.5h-1c-2.2,0-4.3-0.4-6.3-1.3c-2-0.9-3-1.9-3-3.2c0-1.3,0.5-2.5,1.6-3.7c1.1-1.2,1.7-2.1,2-2.8
			c0.5-1.6,2.5-3.5,5.9-5.5c3.4-2,6-3.1,7.7-3.2c1.7-0.1,3.4-0.2,5-0.3c1.6-0.1,3.4-0.1,5.4-0.2c2-0.1,3.5-0.1,4.6-0.2l10.1-0.5
			c6.3-9.4,10.6-15.5,13-18.2c2.4-2.7,3.7-4.2,4.1-4.4c0.4-0.3,1.1-0.4,2.2-0.4L264.9,817.7z"/>
		<path class="st2" d="M313.4,876.9c2.3,0,4.6,1,6.9,3c2.4,2,3.5,5.1,3.5,9.3s-1.5,9.6-4.4,16.2c-2.9,6.6-6.9,13.4-12,20.2
			c-5.1,6.9-10.7,13.3-16.8,19.3c-6.1,6-12.7,11-19.8,14.8c-7.1,3.9-13.5,5.8-19.3,5.8c-5.8,0-10.4-1.8-13.9-5.5s-5.2-8.7-5.2-15.2
			c0-6.5,1.6-13.7,4.8-21.5c3.2-7.9,7.3-14.8,12.3-20.9c5-6,10.5-11.5,16.3-16.3c12.2-9.8,22.9-14.7,32.2-14.7c4.1,0,7.2,1,9.3,3
			c0.7,0.7,1.1,1.3,1.1,1.8v0.7C309.5,877,311.2,876.9,313.4,876.9z M302.1,891.9h-0.8c-2.6,0-3.9-1.9-3.9-5.7
			c-5.5,1.8-11.2,4.9-17.2,9.4c-6,4.5-11.4,9.8-16.1,16c-9.6,12.3-14.5,22.7-14.6,31.2c0,4.2,1.5,6.3,4.6,6.3c3.1,0,7.6-2,13.7-6.1
			c6.1-4,12.1-9.8,18.1-17.3c6-7.5,10.4-14,13.4-19.5c3-5.5,4.4-9.3,4.4-11.2C303.6,892.9,303.1,891.9,302.1,891.9z"/>
		<path class="st2" d="M444.7,897c1.8,0,2.7,1.4,2.7,4.3c0,2.9-0.6,7.9-1.9,14.9c-1,4.7-6.4,11.5-16.2,20.2
			c-11.9,10.5-24.9,18-39,22.5c-8.5,2.7-16.9,4-25,4c-8.1,0-15.6-3.4-22.3-10.3c-6.7-6.9-10.1-15-10.1-24.4c0-9.4,1.9-19.2,5.7-29.2
			c3.8-10.1,8.9-19.7,15.3-28.9c6.4-9.2,14-18,22.7-26.5c8.7-8.5,17.8-15.8,27.3-22c9.4-6.2,19.3-11.2,29.7-14.8
			c10.3-3.7,20.2-5.5,29.5-5.5c7.3,0,13.6,2.7,18.8,8c2.7,2.9,4.1,6.4,4.1,10.7c0,4.3-2.1,9.8-6.3,16.3c-4.2,6.6-9.2,12.5-14.9,17.9
			c-5.7,5.4-11.7,10-17.8,13.7c-6.1,3.8-11,5.6-14.7,5.6s-6.8-1.1-9.4-3.4c-2.6-2.3-3.9-4.3-3.9-6.1s0.4-3.8,1.2-6
			c0.8-2.2,1.8-3.3,3-3.3c-0.3,0.4-0.4,0.8-0.4,1.1c0,0.9,1.3,1.3,3.9,1.3s6.9-2.3,13-6.9c6.1-4.6,11.6-9.7,16.5-15.4
			c4.9-5.7,7.4-10,7.4-12.8c0-1.9-1.3-2.9-3.9-2.9c-7.1,0-16.8,3.3-29.2,9.8c-12.4,6.6-24.3,15-35.6,25.4
			c-11.3,10.3-21.2,22.6-29.5,36.8c-8.4,14.2-12.5,27-12.5,38.3c0,4.7,1.3,8.5,3.8,11.4c2.5,2.9,6.4,4.3,11.6,4.3
			c5.2,0,11.4-1.5,18.5-4.5c7.1-3,13.9-6.7,20.3-11c6.4-4.3,12.5-8.8,18.2-13.4c5.7-4.6,10.3-8.6,13.7-12c3.4-3.4,5.2-5.5,5.2-6.2
			C443.8,897.4,444.1,897,444.7,897z"/>
		<path class="st2" d="M528.7,876.9c2.3,0,4.6,1,6.9,3c2.4,2,3.5,5.1,3.5,9.3s-1.5,9.6-4.4,16.2c-2.9,6.6-6.9,13.4-12,20.2
			c-5.1,6.9-10.7,13.3-16.8,19.3c-6.1,6-12.7,11-19.8,14.8c-7.1,3.9-13.5,5.8-19.3,5.8c-5.8,0-10.4-1.8-13.9-5.5
			c-3.5-3.6-5.2-8.7-5.2-15.2c0-6.5,1.6-13.7,4.8-21.5c3.2-7.9,7.3-14.8,12.3-20.9c5-6,10.5-11.5,16.3-16.3
			c12.2-9.8,22.9-14.7,32.2-14.7c4.1,0,7.2,1,9.3,3c0.7,0.7,1.1,1.3,1.1,1.8v0.7C524.8,877,526.5,876.9,528.7,876.9z M517.4,891.9
			h-0.8c-2.6,0-3.9-1.9-3.9-5.7c-5.5,1.8-11.2,4.9-17.2,9.4c-6,4.5-11.4,9.8-16.1,16c-9.6,12.3-14.5,22.7-14.6,31.2
			c0,4.2,1.5,6.3,4.6,6.3c3.1,0,7.6-2,13.7-6.1c6.1-4,12.1-9.8,18.1-17.3c6-7.5,10.4-14,13.4-19.5c3-5.5,4.4-9.3,4.4-11.2
			C518.9,892.9,518.4,891.9,517.4,891.9z"/>
		<path class="st2" d="M632,927.3c1.4,0,2.3,1.1,2.6,3.3c0.3,2.2,0.5,4.4,0.5,6.8c0,2.3-0.2,3.9-0.7,4.8c-2.2,4.2-6.9,9.3-14.3,15.4
			c-7.4,6-14.3,9.1-20.9,9.1c-4,0-7.8-1.2-11.3-3.7c-3.5-2.4-5.2-6.7-5.2-12.8c0-6.1,1.6-12,4.8-17.9c-18.6,23.3-33.2,35-43.8,35
			c-4.2,0-7.6-1.5-10.2-4.5c-2.6-3-3.9-6.1-3.9-9.3c0-3.2,0.5-6.5,1.3-9.9c0.9-3.4,1.9-6.5,2.9-9.2c1-2.7,2.5-6,4.5-10
			c2-4,3.5-6.9,4.4-8.7s2.5-4.5,4.7-8.2c2.1-3.6,4.9-8.5,8.4-14.7c3.5-6.1,6.4-10.7,8.7-13.7c2.3-3,4.5-4.5,6.7-4.5
			c2.2,0,4.1,0.8,5.7,2.6c1.6,1.8,2.5,3.3,2.5,4.4c0,1.1-2.5,6.2-7.5,15.2c-14.8,26.8-22.3,42.5-22.3,46.9c0,1.1,0.4,1.7,1.2,1.7
			c3.6,0,12.6-7.8,26.9-23.4c14.3-15.6,22.6-25.6,24.9-30s4.4-8.1,6.6-11.1c2.1-3,3.7-4.8,4.8-5.5c3.2-2.1,7.4-3.2,12.5-3.4
			c0.8,0,1.5,0,1.9,0.1c0.5,0.1,1,0.7,1.6,1.9c0.6,1.2,0.9,2.1,0.9,2.8c-0.7,2.1-3.7,7.7-8.9,16.8c-5.3,9.1-8.2,14.2-8.8,15.4
			c-8.9,18.3-13.3,30.2-13.3,35.8c0,3.1,1.2,4.7,3.6,4.7c4.3-0.6,9.6-4.1,15.7-10.5c2.3-2.3,4.5-4.7,6.7-7.1
			c2.2-2.4,3.6-3.8,4.1-4.2C630.6,927.5,631.2,927.3,632,927.3z"/>
		<path class="st2" d="M664.6,901.3c17.7-20.1,32.8-30.1,45.2-30.1c3.1,0,5.6,0.9,7.6,2.8c2,1.8,3,4.2,3,7.1s-2.1,7.8-6.2,14.7
			c-4.2,6.9-8,12.7-11.5,17.4c-1.9,2.4-4,3.6-6.4,3.6s-4.2-0.9-5.5-2.6c-1.3-1.7-2-3.7-2-6.1c0-5.2,2.8-11,8.3-17.5l-0.2-0.2
			c-2.5,0.2-8.6,5.1-18.4,14.6c-9.8,9.5-18.1,18.1-25,25.6c-6.9,7.5-14.3,16.7-22.3,27.5c-2.3,3.2-4.3,4.8-5.9,4.8
			c-1.6,0-3.8-0.5-6.4-1.5c-2.7-1-4.3-1.7-4.8-2.2c-0.6-0.4-0.8-1.2-0.8-2.3c0-1,0.3-2.3,0.9-3.7c0.6-1.4,1.7-3.4,3.3-5.9
			c1.6-2.5,4-6.7,7.3-12.4c3.3-5.7,8.3-14.3,15.2-25.9c6.9-11.5,11-18.5,12.4-20.9c2.8-4.9,5.2-8.5,7-10.8c3.4-4.3,9.1-6.4,17.1-6.4
			c1.8,0,2.7,1.1,2.7,3.4c0,3.5-3.3,10.2-9.8,19.9L664.6,901.3z"/>
		<path class="st2" d="M785.7,817.7l4.6,1.1c0.7,0,1.3,0.3,1.8,1c0.5,0.7,0.8,1.3,0.8,1.9c0,0.6-0.8,2.2-2.4,4.8
			c-1.6,2.6-3.4,5.6-5.6,8.9c-2.1,3.3-3.3,5.2-3.4,5.5c5.8-0.4,10-0.7,12.4-0.7c2.4,0,4.1,0.2,5,0.5c0.9,0.3,1.9,1.3,3.1,2.8
			c1.2,1.5,2.2,2.7,3.2,3.5c1,0.8,1.5,2,1.5,3.5c0,1.6-1,2.9-2.9,4c-1.9,1.1-4,1.7-6.1,2c-17.4,1.7-27,2.6-28.8,2.7
			c-6.1,9.3-14.6,23.8-25.5,43.5c-10.9,19.7-16.7,32-17.4,37c-0.3,2.3-0.4,4.1-0.4,5.5c0,2.9,1.5,4.4,4.6,4.4
			c3.1,0,6.5-1.2,10.2-3.5c3.7-2.4,7.2-4.9,10.3-7.7c8.4-7.5,12.9-11.2,13.5-11.2c1.9,0,2.9,3.4,2.9,10.1c0,3.7-1.7,7-5.1,9.9
			c-7.6,6.5-13.9,11.4-19.1,14.7c-5.2,3.3-10.3,4.9-15.5,4.9c-1.1,0-2.2-0.1-3.2-0.3c-6-1.1-10.4-3.3-13.2-6.6
			c-2.8-3.3-4.2-7.7-4.2-13.2c0-5.5,1.7-12.3,5-20.2c3.3-7.9,7.4-16.3,12.3-25.3c8.1-14.5,16.2-28.2,24.3-40.9l-4.3,0.6
			c-8.7,1-13.8,1.5-15.2,1.5h-1c-2.2,0-4.3-0.4-6.3-1.3c-2-0.9-3-1.9-3-3.2c0-1.3,0.5-2.5,1.6-3.7c1.1-1.2,1.7-2.1,2-2.8
			c0.5-1.6,2.5-3.5,5.9-5.5c3.4-2,6-3.1,7.7-3.2c1.7-0.1,3.4-0.2,5-0.3c1.6-0.1,3.4-0.1,5.4-0.2c2-0.1,3.5-0.1,4.6-0.2l10.1-0.5
			c6.3-9.4,10.6-15.5,13-18.2c2.4-2.7,3.7-4.2,4.1-4.4c0.4-0.3,1.1-0.4,2.3-0.4L785.7,817.7z"/>
		<path class="st2" d="M835.2,878.5c0,4.9-2,9.3-6,13c-4,3.8-8.6,5.6-13.7,5.6c-1.7,0-2.7-0.4-3.3-1.2c-0.5-0.8-0.8-1.8-0.8-3.1
			c0-1.3,0.1-2.5,0.4-3.7c-2.7,0.9-5.7,2.3-9,4.2c-3.3,1.9-7.4,4.7-12.1,8.3c-4.8,3.7-7.2,6.4-7.2,8.2c0,0.6,0.9,0.9,2.6,0.9
			c1.8,0,4.5-0.6,8.2-1.9c3.7-1.2,6.2-1.9,7.7-1.9c1.5,0,2.4,0.1,2.9,0.2c1,0.5,2,1.7,3.2,3.4c1.1,1.8,1.7,3.1,1.7,4.2
			c0,1-1,2.3-2.9,4c-2,1.7-4.2,2.9-6.6,3.8c-2.5,0.9-4.1,1.5-4.9,2c-15.8,8.9-23.7,14.9-23.7,18.2c0,5.8,5,8.8,15,8.8
			c6.4,0,12.8-2,19.2-6.1c5.5-3.4,10.4-7,14.8-10.5c4.4-3.6,7.2-5.8,8.3-6.6c1.2-0.8,2-1.2,2.6-1.2c1.9,0,2.9,2.2,2.9,6.5
			c0,4.4-0.3,7.2-0.8,8.6c-0.5,1.4-2,3.1-4.5,5.1c-16,13-31.2,19.6-45.6,19.6c-7.6,0-13.8-1.1-18.3-3.1c-8.4-3.8-12.6-9.7-12.6-17.5
			c0-10.3,7.2-18.2,21.5-23.5c-2.9-1.3-4.7-2.9-5.5-4.9c-0.8-2-1.2-5.2-1.2-9.6s2-9,6.1-13.9c4.1-4.9,9.1-8.9,15-12.1
			c13.2-7.1,25-10.7,35.3-10.7c2.5,0,5,0.6,7.5,1.8C833.9,874.6,835.2,876.3,835.2,878.5z"/>
		<path class="st2" d="M843.3,940.1l-0.1,1.8c0,1.9,0.7,3.5,2.1,4.8c1.4,1.3,2.7,2,3.9,2c9,0,17-1.4,23.9-4
			c6.9-2.7,10.4-5.4,10.4-8.1c0-1.3-1.3-2.4-3.8-3.3c-2.5-0.9-6.8-2.1-12.7-3.5c-6-1.4-10.3-2.5-13-3.3c-2.7-0.8-4.8-1.5-6.4-2.2
			c-1.6-0.7-3.2-1.6-4.8-2.8c-3.5-2.5-5.3-6.2-5.3-11.1c0-4.9,1.8-9.8,5.5-14.6c3.6-4.8,8.2-9,13.7-12.4c5.5-3.4,11.4-6.5,17.7-9.1
			c12.4-5.2,22.9-7.8,31.4-7.8c8.3,0,13.5,1.8,15.4,5.4c0.6,1.3,0.9,2.7,0.9,4.3v0.8c0,4-0.8,7.1-2.5,9.3c-1.7,2.3-4.4,4.3-8,6.1
			c-3.6,1.8-6.5,2.7-8.7,2.7c-2.1,0-3.5-0.1-4-0.4c-0.6-0.3-1-0.7-1.4-1.2c-0.4-0.5-0.8-0.8-1.4-1.1s-0.8-0.8-0.8-1.7
			s0.4-1.8,1.1-2.8c0.7-0.9,1.3-1.9,1.6-3c-4.9,0.2-10.1,1.4-15.5,3.4c-5.4,2.1-10,4.4-13.9,6.9c-3.9,2.6-7.1,5-9.6,7.3
			c-2.6,2.3-3.8,4-3.8,5.1c0,1.1,1.7,2,5.2,2.6c15.5,3.1,25.7,5.7,30.6,8c4.9,2.3,8.2,4.8,10.1,7.6c1.9,2.9,2.8,5.4,2.8,7.8
			c0,4.8-1.9,9.3-5.7,13.6c-3.8,4.3-8.5,7.8-14.2,10.5c-12.1,5.9-22.6,8.9-31.6,8.9c-9,0-15.1-1.4-18.6-4.1c-3.4-2.7-5.1-6-5.1-9.7
			c0-3.7,1-7.2,2.9-10.4c1.9-3.2,4.4-4.8,7.4-4.8C841.8,937.8,843.3,938.6,843.3,940.1z"/>
		<path class="st2" d="M949.7,1000c-0.4,0.4-1.5,2.3-3.4,5.7c-1.9,3.4-4,6.9-6.1,10.3c-2.2,3.5-4.9,6.8-8,10c-3.2,3.1-5.8,4.9-8,5.1
			c-2.1,0.3-3.5,0.4-4.1,0.4c-6.9,0-10.3-3.5-10.3-10.5c0-8.2,4.2-17.7,12.7-28.7c3.2-4.1,7.3-8.6,12.1-13.3c4.9-4.8,7.5-7.5,8-8.1
			c0.5-0.6,6.1-11.2,16.9-31.6c-7.2,7.9-13.9,14.3-20,19.2c-6.1,4.9-12.1,7.7-17.8,8.3h-0.8c-2.9,0-5.8-1-8.7-2.9
			c-2.9-1.9-4.3-5.3-4.3-10.1c0-7.1,1.9-14,5.7-20.7c1.4-2.3,3.7-6.3,7-11.8c3.3-5.5,6.4-10.9,9.3-16.1c2.7-4.1,5.5-8.9,8.3-14.4
			c2.8-5.5,5-9.4,6.5-11.8c1.5-2.4,2.9-3.5,4.3-3.5s3.1,0.8,5.2,2.5c2.1,1.7,3.2,3.7,3.2,6c0,2.3-4.9,12.4-14.7,30.3
			c-9.8,17.8-14.7,28-14.7,30.5c0,0.6,0.3,0.9,0.9,0.9c2,0,6.5-2.9,13.4-8.6c6.9-5.7,14.6-13.1,23-22.1c9.4-10,16.7-19.1,22-27.3
			c0.7-1,1.2-1.9,1.6-2.4c0.4-0.6,0.9-1.3,1.6-2.3c0.6-0.9,1.2-1.7,1.6-2.2c0.4-0.5,0.9-1.1,1.5-1.9c0.6-0.7,1.1-1.3,1.5-1.6
			c0.5-0.4,0.9-0.7,1.5-1.1c0.8-0.7,1.7-1.1,2.8-1.1c1,0,2.5,0.2,4.6,0.7c2.1,0.5,3.3,0.9,3.7,1.5c0.4,0.5,0.8,1,1.3,1.5
			c0.7,0.8,1.1,1.6,1.1,2.3c0,0.7-0.3,1.7-0.9,2.8c-0.6,1.2-4.1,7.1-10.5,17.8C980,933.3,967.1,956.4,960,971
			c11.4-9.6,27.4-23.8,48.1-42.6c0.8-0.7,1.6-1,2.5-1c2.3,0,3.5,3.6,3.5,10.7c0,2.1-0.4,3.5-1.1,4.2
			C990.6,959.4,969.5,978.7,949.7,1000z"/>
	</g>
</g>
</svg>
